<svg xmlns="http://www.w3.org/2000/svg" viewBox="0 8.859999656677246 282.92999267578125 37.0099983215332" data-asc="0.9052734375" width="282.92999267578125" height="37.0099983215332"><defs/><g fill="#e80202"><g transform="translate(0, 0)"><path d="M0 45.26L0 9.47L15.87 9.47Q20.65 9.47 23.14 10.44Q25.63 11.40 27.12 13.84Q28.61 16.28 28.61 19.24Q28.61 23.05 26.15 25.66Q23.68 28.27 18.53 28.98Q20.41 29.88 21.39 30.76Q23.46 32.67 25.32 35.52L31.54 45.26L25.59 45.26L20.85 37.82Q18.77 34.59 17.43 32.89Q16.09 31.18 15.03 30.49Q13.96 29.81 12.87 29.54Q12.06 29.37 10.23 29.37L4.74 29.37L4.74 45.26L0 45.26M4.74 25.27L14.92 25.27Q18.16 25.27 20.00 24.60Q21.83 23.93 22.78 22.45Q23.73 20.97 23.73 19.24Q23.73 16.70 21.89 15.06Q20.04 13.43 16.06 13.43L4.74 13.43L4.74 25.27ZM52.39 42.07Q49.95 44.14 47.69 45.00Q45.43 45.85 42.85 45.85Q38.57 45.85 36.28 43.76Q33.98 41.67 33.98 38.43Q33.98 36.52 34.85 34.95Q35.72 33.37 37.12 32.42Q38.53 31.47 40.28 30.98Q41.58 30.64 44.19 30.32Q49.51 29.69 52.03 28.81Q52.05 27.91 52.05 27.66Q52.05 24.98 50.81 23.88Q49.12 22.39 45.80 22.39Q42.70 22.39 41.22 23.47Q39.75 24.56 39.04 27.32L34.74 26.73Q35.33 23.97 36.67 22.28Q38.01 20.58 40.55 19.67Q43.09 18.75 46.44 18.75Q49.76 18.75 51.83 19.53Q53.91 20.31 54.88 21.50Q55.86 22.68 56.25 24.49Q56.47 25.61 56.47 28.54L56.47 34.40Q56.47 40.53 56.75 42.15Q57.03 43.77 57.86 45.26L53.27 45.26Q52.59 43.90 52.39 42.07M52.03 32.25Q49.63 33.23 44.85 33.91Q42.14 34.30 41.02 34.79Q39.89 35.28 39.28 36.22Q38.67 37.16 38.67 38.31Q38.67 40.06 40.00 41.24Q41.33 42.41 43.90 42.41Q46.44 42.41 48.41 41.30Q50.39 40.19 51.32 38.26Q52.03 36.77 52.03 33.86L52.03 32.25ZM70.48 45.26L60.62 19.34L65.26 19.34L70.83 34.86Q71.73 37.38 72.49 40.09Q73.07 38.04 74.12 35.16L79.88 19.34L84.40 19.34L74.58 45.26L70.48 45.26ZM88.31 14.53L88.31 9.47L92.70 9.47L92.70 14.53L88.31 14.53M88.31 45.26L88.31 19.34L92.70 19.34L92.70 45.26L88.31 45.26ZM112.23 33.76L116.70 33.37Q117.02 36.06 118.18 37.78Q119.34 39.50 121.78 40.56Q124.22 41.63 127.27 41.63Q129.98 41.63 132.06 40.82Q134.13 40.01 135.14 38.61Q136.16 37.21 136.16 35.55Q136.16 33.86 135.18 32.60Q134.20 31.35 131.96 30.49Q130.52 29.93 125.59 28.75Q120.65 27.56 118.68 26.51Q116.11 25.17 114.86 23.18Q113.60 21.19 113.60 18.73Q113.60 16.02 115.14 13.66Q116.67 11.30 119.63 10.08Q122.58 8.86 126.20 8.86Q130.18 8.86 133.22 10.14Q136.25 11.43 137.89 13.92Q139.53 16.41 139.65 19.56L135.11 19.90Q134.74 16.50 132.63 14.77Q130.52 13.04 126.39 13.04Q122.09 13.04 120.13 14.61Q118.16 16.19 118.16 18.41Q118.16 20.34 119.56 21.58Q120.92 22.83 126.70 24.13Q132.47 25.44 134.62 26.42Q137.74 27.86 139.23 30.07Q140.72 32.28 140.72 35.16Q140.72 38.01 139.09 40.54Q137.45 43.07 134.39 44.47Q131.32 45.87 127.49 45.87Q122.63 45.87 119.35 44.46Q116.06 43.04 114.20 40.20Q112.33 37.35 112.23 33.76ZM146.63 45.26L146.63 9.47L151.03 9.47L151.03 22.31Q154.10 18.75 158.79 18.75Q161.67 18.75 163.79 19.89Q165.92 21.02 166.83 23.02Q167.75 25.02 167.75 28.83L167.75 45.26L163.35 45.26L163.35 28.83Q163.35 25.54 161.93 24.04Q160.50 22.53 157.89 22.53Q155.93 22.53 154.21 23.55Q152.49 24.56 151.76 26.29Q151.03 28.03 151.03 31.08L151.03 45.26L146.63 45.26ZM191.36 42.07Q188.92 44.14 186.66 45.00Q184.40 45.85 181.81 45.85Q177.54 45.85 175.24 43.76Q172.95 41.67 172.95 38.43Q172.95 36.52 173.82 34.95Q174.68 33.37 176.09 32.42Q177.49 31.47 179.25 30.98Q180.54 30.64 183.15 30.32Q188.48 29.69 190.99 28.81Q191.02 27.91 191.02 27.66Q191.02 24.98 189.77 23.88Q188.09 22.39 184.77 22.39Q181.67 22.39 180.19 23.47Q178.71 24.56 178.00 27.32L173.71 26.73Q174.29 23.97 175.63 22.28Q176.98 20.58 179.52 19.67Q182.06 18.75 185.40 18.75Q188.72 18.75 190.80 19.53Q192.87 20.31 193.85 21.50Q194.82 22.68 195.21 24.49Q195.43 25.61 195.43 28.54L195.43 34.40Q195.43 40.53 195.72 42.15Q196.00 43.77 196.83 45.26L192.24 45.26Q191.55 43.90 191.36 42.07M190.99 32.25Q188.60 33.23 183.81 33.91Q181.10 34.30 179.98 34.79Q178.86 35.28 178.25 36.22Q177.64 37.16 177.64 38.31Q177.64 40.06 178.97 41.24Q180.30 42.41 182.86 42.41Q185.40 42.41 187.38 41.30Q189.36 40.19 190.28 38.26Q190.99 36.77 190.99 33.86L190.99 32.25ZM202.20 45.26L202.20 19.34L206.15 19.34L206.15 23.27Q207.67 20.51 208.95 19.63Q210.23 18.75 211.77 18.75Q213.99 18.75 216.28 20.17L214.77 24.24Q213.16 23.29 211.55 23.29Q210.11 23.29 208.96 24.16Q207.81 25.02 207.32 26.56Q206.59 28.91 206.59 31.69L206.59 45.26L202.20 45.26ZM218.90 45.26L218.90 19.34L222.83 19.34L222.83 22.97Q224.05 21.07 226.07 19.91Q228.10 18.75 230.69 18.75Q233.57 18.75 235.41 19.95Q237.26 21.14 238.01 23.29Q241.09 18.75 246.02 18.75Q249.88 18.75 251.95 20.89Q254.03 23.02 254.03 27.47L254.03 45.26L249.66 45.26L249.66 28.93Q249.66 26.29 249.23 25.13Q248.80 23.97 247.68 23.27Q246.56 22.56 245.04 22.56Q242.31 22.56 240.50 24.38Q238.70 26.20 238.70 30.20L238.70 45.26L234.30 45.26L234.30 28.42Q234.30 25.49 233.23 24.02Q232.15 22.56 229.71 22.56Q227.86 22.56 226.28 23.54Q224.71 24.51 224.00 26.39Q223.29 28.27 223.29 31.81L223.29 45.26L218.90 45.26ZM277.47 42.07Q275.02 44.14 272.77 45.00Q270.51 45.85 267.92 45.85Q263.65 45.85 261.35 43.76Q259.06 41.67 259.06 38.43Q259.06 36.52 259.92 34.95Q260.79 33.37 262.19 32.42Q263.60 31.47 265.36 30.98Q266.65 30.64 269.26 30.32Q274.58 29.69 277.10 28.81Q277.12 27.91 277.12 27.66Q277.12 24.98 275.88 23.88Q274.19 22.39 270.87 22.39Q267.77 22.39 266.30 23.47Q264.82 24.56 264.11 27.32L259.81 26.73Q260.40 23.97 261.74 22.28Q263.09 20.58 265.63 19.67Q268.16 18.75 271.51 18.75Q274.83 18.75 276.90 19.53Q278.98 20.31 279.96 21.50Q280.93 22.68 281.32 24.49Q281.54 25.61 281.54 28.54L281.54 34.40Q281.54 40.53 281.82 42.15Q282.10 43.77 282.93 45.26L278.34 45.26Q277.66 43.90 277.47 42.07M277.10 32.25Q274.71 33.23 269.92 33.91Q267.21 34.30 266.09 34.79Q264.97 35.28 264.36 36.22Q263.75 37.16 263.75 38.31Q263.75 40.06 265.08 41.24Q266.41 42.41 268.97 42.41Q271.51 42.41 273.49 41.30Q275.46 40.19 276.39 38.26Q277.10 36.77 277.10 33.86L277.10 32.25Z"/></g></g></svg>